<svg width="129" height="32" viewBox="0 0 129 32" fill="none" xmlns="http://www.w3.org/2000/svg">
<path d="M9.46562 32C7.52841 32 5.91021 31.6739 4.61101 31.0217C3.32341 30.3695 2.3664 29.5157 1.74 28.4603C1.1136 27.4167 0.777202 26.2783 0.730801 25.045H4.69801C4.89521 26.0886 5.35921 26.9009 6.09001 27.4819C6.83241 28.0749 7.95182 28.3713 9.44822 28.3713C10.6894 28.3713 11.7102 28.1282 12.5106 27.642C13.3226 27.1677 13.9142 26.5273 14.2854 25.721C14.6566 24.9264 14.8422 24.0252 14.8422 23.0172V21.1495C14.2506 22.3117 13.4154 23.1833 12.3366 23.7643C11.2578 24.3335 10.0282 24.6181 8.64782 24.6181C6.98901 24.6181 5.49841 24.2149 4.17601 23.4086C2.86521 22.5903 1.8386 21.4875 1.0962 20.1001C0.365401 18.7126 0 17.1947 0 15.5464C0 13.8981 0.365401 12.3624 1.0962 10.9394C1.827 9.50454 2.84201 8.3602 4.14121 7.50639C5.44041 6.65258 6.89621 6.22568 8.50862 6.22568C9.52942 6.22568 10.4632 6.39763 11.31 6.74152C12.1568 7.07356 12.876 7.51825 13.4676 8.0756C14.0708 8.62109 14.5348 9.22587 14.8596 9.88994V6.7771H18.8616V22.9639C18.8616 24.6952 18.4962 26.2427 17.7654 27.6064C17.0346 28.9702 15.9616 30.0434 14.5464 30.826C13.1312 31.6087 11.4376 32 9.46562 32ZM9.43082 20.8827C10.3936 20.8827 11.2752 20.6396 12.0756 20.1534C12.876 19.6672 13.5082 19.015 13.9722 18.1968C14.4478 17.3785 14.6856 16.4892 14.6856 15.5286C14.6856 14.5918 14.4536 13.7143 13.9896 12.8961C13.5256 12.0778 12.8876 11.4256 12.0756 10.9394C11.2752 10.4532 10.3936 10.2101 9.43082 10.2101C8.45642 10.2101 7.56901 10.4354 6.76861 10.886C5.96821 11.3367 5.33601 11.9652 4.87201 12.7715C4.40801 13.5779 4.17601 14.4969 4.17601 15.5286C4.17601 16.5366 4.40801 17.4497 4.87201 18.2679C5.33601 19.0862 5.96821 19.7265 6.76861 20.189C7.56901 20.6515 8.45642 20.8827 9.43082 20.8827Z" fill="#17191B"/>
<path d="M23.8206 0H28.0315V25.0628H23.8206V0Z" fill="#17191B"/>
<path d="M41.0989 25.6142C39.3241 25.6142 37.7175 25.1814 36.2791 24.3157C34.8523 23.4501 33.7329 22.282 32.9209 20.8116C32.1089 19.3293 31.7029 17.6987 31.7029 15.92C31.7029 14.153 32.1089 12.5284 32.9209 11.0461C33.7329 9.56383 34.8523 8.38985 36.2791 7.52418C37.7175 6.65851 39.3299 6.22568 41.1163 6.22568C42.9143 6.22568 44.5325 6.65851 45.9709 7.52418C47.4093 8.38985 48.5345 9.56383 49.3465 11.0461C50.1585 12.5284 50.5645 14.153 50.5645 15.92C50.5645 17.6987 50.1585 19.3293 49.3465 20.8116C48.5345 22.2939 47.4035 23.4679 45.9535 24.3335C44.5151 25.1873 42.8969 25.6142 41.0989 25.6142ZM41.1337 21.612C42.1313 21.612 43.0245 21.3689 43.8133 20.8827C44.6137 20.3965 45.2401 19.7206 45.6925 18.8549C46.1565 17.9893 46.3885 17.0109 46.3885 15.92C46.3885 14.8408 46.1565 13.8684 45.6925 13.0028C45.2401 12.1253 44.6137 11.4434 43.8133 10.9572C43.0129 10.4591 42.1197 10.2101 41.1337 10.2101C40.1477 10.2101 39.2545 10.4591 38.4541 10.9572C37.6537 11.4434 37.0215 12.1253 36.5575 13.0028C36.1051 13.8684 35.8789 14.8408 35.8789 15.92C35.8789 17.0109 36.1051 17.9893 36.5575 18.8549C37.0215 19.7206 37.6479 20.3965 38.4367 20.8827C39.2371 21.3689 40.1361 21.612 41.1337 21.612Z" fill="#17191B"/>
<path d="M64.4323 25.6142C63.1331 25.6142 61.9267 25.2941 60.8131 24.6537C59.7111 24.0015 58.8527 23.1121 58.2379 21.9855V25.0628H54.2359V0.0177877H58.4467V7.36409L58.3423 9.76542C58.9455 8.69817 59.7807 7.84436 60.8479 7.204C61.9267 6.56365 63.1041 6.24347 64.3801 6.24347C66.0389 6.24347 67.5295 6.6763 68.8519 7.54197C70.1859 8.40763 71.2241 9.58162 71.9665 11.0639C72.7205 12.5344 73.0975 14.153 73.0975 15.92C73.0975 17.6987 72.7205 19.3293 71.9665 20.8116C71.2125 22.282 70.1743 23.4501 68.8519 24.3157C67.5411 25.1814 66.0679 25.6142 64.4323 25.6142ZM63.6667 21.6476C64.6179 21.6476 65.4937 21.4163 66.2941 20.9539C67.0945 20.4795 67.7325 19.8095 68.2081 18.9439C68.6837 18.0782 68.9215 17.0702 68.9215 15.92C68.9215 14.8053 68.6837 13.8151 68.2081 12.9494C67.7441 12.0837 67.1061 11.4137 66.2941 10.9394C65.4937 10.4532 64.6121 10.2101 63.6493 10.2101C62.6981 10.2101 61.8165 10.4651 61.0045 10.975C60.2041 11.473 59.5661 12.1608 59.0905 13.0384C58.6265 13.9159 58.3945 14.8764 58.3945 15.92C58.3945 17.0109 58.6323 17.9952 59.1079 18.8727C59.5835 19.7384 60.2215 20.4202 61.0219 20.9183C61.8339 21.4045 62.7155 21.6476 63.6667 21.6476Z" fill="#17191B"/>
<path d="M84.3902 25.6142C82.8126 25.6142 81.38 25.1814 80.0924 24.3157C78.8048 23.4501 77.7955 22.2761 77.0648 20.7938C76.3339 19.3115 75.9685 17.6869 75.9685 15.92C75.9685 14.1649 76.3339 12.5462 77.0648 11.0639C77.8072 9.58162 78.8164 8.40763 80.0924 7.54197C81.38 6.66444 82.8068 6.22568 84.3728 6.22568C85.8344 6.22568 87.1278 6.55179 88.253 7.204C89.3898 7.84436 90.2482 8.73374 90.8282 9.87215V6.7771H94.8302V25.0628H90.8282V21.9855C90.2482 23.124 89.3898 24.0133 88.253 24.6537C87.1278 25.2941 85.8402 25.6142 84.3902 25.6142ZM85.3994 21.6298C86.3622 21.6298 87.2438 21.3808 88.0442 20.8827C88.8562 20.3728 89.4942 19.685 89.9582 18.8193C90.4222 17.9418 90.6542 16.9754 90.6542 15.92C90.6542 14.8764 90.4164 13.9218 89.9408 13.0561C89.4768 12.1786 88.8446 11.4849 88.0442 10.975C87.2438 10.4651 86.3622 10.2101 85.3994 10.2101C84.4366 10.2101 83.555 10.4532 82.7546 10.9394C81.9542 11.4137 81.3162 12.0837 80.8406 12.9494C80.3766 13.8151 80.1446 14.8053 80.1446 15.92C80.1446 17.0702 80.3824 18.0782 80.858 18.9439C81.3336 19.8095 81.9716 20.4736 82.772 20.9361C83.5724 21.3986 84.4482 21.6298 85.3994 21.6298Z" fill="#17191B"/>
<path d="M99.7892 0H104V25.0628H99.7892V0Z" fill="#17191B"/>
<path d="M118.5 25C116.524 25 114.735 24.5923 113.133 23.777C111.542 22.9496 110.289 21.7806 109.373 20.2698C108.458 18.747 108 16.9904 108 15V0H112.482V14.6763C112.482 15.8393 112.717 16.8945 113.187 17.8417C113.657 18.789 114.343 19.5384 115.247 20.0899C116.163 20.6295 117.247 20.8993 118.5 20.8993C119.729 20.8993 120.795 20.6295 121.699 20.0899C122.602 19.5384 123.295 18.795 123.777 17.8597C124.259 16.9125 124.5 15.8573 124.5 14.6942V0H129V15C129 16.9305 128.554 18.6571 127.663 20.1799C126.783 21.6906 125.548 22.8717 123.958 23.723C122.367 24.5743 120.548 25 118.5 25Z" fill="#F33434"/>
</svg>
